<svg xmlns="http://www.w3.org/2000/svg" width="1em" height="1em" viewBox="0 0 30.476 17.9">
  <g transform="translate(-4.733)">
    <g transform="translate(4.733 0)">
      <path
        d="M145.384,5.246,147.723.755a.461.461,0,0,0-.164-.686.448.448,0,0,0-.659.205L144.528,4.8a15.933,15.933,0,0,0-13.245,0L128.911.274a.449.449,0,0,0-.659-.205.46.46,0,0,0-.164.686l2.339,4.491a14.658,14.658,0,0,0-5.667,5.264,13.689,13.689,0,0,0-2.109,7.39h30.476a13.693,13.693,0,0,0-2.109-7.39A14.725,14.725,0,0,0,145.384,5.246Zm-13.525,6.533a1.212,1.212,0,0,1-.906.4,1.157,1.157,0,0,1-.889-.4,1.408,1.408,0,0,1,0-1.885,1.162,1.162,0,0,1,.889-.394,1.215,1.215,0,0,1,.906.394,1.362,1.362,0,0,1,0,1.885Zm13.887,0a1.16,1.16,0,0,1-.889.4,1.21,1.21,0,0,1-.906-.4,1.362,1.362,0,0,1,0-1.885,1.213,1.213,0,0,1,.906-.394,1.162,1.162,0,0,1,.889.394,1.408,1.408,0,0,1,0,1.885Z"
        transform="translate(-122.651 0)" />
    </g>
  </g>
</svg>