<svg xmlns="http://www.w3.org/2000/svg" width="1em" height="1em" viewBox="0 0 30.304 30.318">
  <path
    d="M15.1-.032A14.74,14.74,0,0,1,22.734,2,14.838,14.838,0,0,1,28.688,8.29l-12.551-.66a8.3,8.3,0,0,0-4.973,1.26,7.3,7.3,0,0,0-3.129,3.882L3.366,5.6A14.785,14.785,0,0,1,8.627,1.448,15.164,15.164,0,0,1,15.1-.032ZM2.47,6.819l5.7,11.215A8.262,8.262,0,0,0,11.739,21.7a7.36,7.36,0,0,0,4.956.761L12.8,30.094A15.105,15.105,0,0,1,1.683,22.084,14.877,14.877,0,0,1,0,15.124,14.9,14.9,0,0,1,2.47,6.819ZM29.3,9.677A14.831,14.831,0,0,1,30.3,14.929a15.367,15.367,0,0,1-.82,5.176,14.953,14.953,0,0,1-2.588,4.6,15.078,15.078,0,0,1-4.161,3.544,14.927,14.927,0,0,1-8.424,2.013l6.851-10.538a8.1,8.1,0,0,0,1.4-4.914,7.4,7.4,0,0,0-1.8-4.694Zm-14.141.338a5.111,5.111,0,0,1,5.108,5.108,5.111,5.111,0,0,1-5.108,5.108,5.111,5.111,0,0,1-5.108-5.108,5.111,5.111,0,0,1,5.108-5.108Z"
    transform="translate(0 0.032)" />
</svg>