<svg xmlns="http://www.w3.org/2000/svg" width="1em" height="1em" viewBox="0 0 15.965 15.965">
  <g transform="translate(-79.394 -68.017)">
    <path class="a"
      d="M87.377,83.732A7.733,7.733,0,1,1,95.11,76,7.743,7.743,0,0,1,87.377,83.732Zm0-14.8A7.072,7.072,0,1,0,94.449,76a7.08,7.08,0,0,0-7.072-7.072Z" />
    <path class="a"
      d="M87.377,83.982A7.983,7.983,0,1,1,95.36,76,7.992,7.992,0,0,1,87.377,83.982Zm0-15.465A7.483,7.483,0,1,0,94.86,76,7.491,7.491,0,0,0,87.377,68.517Zm0,14.8A7.322,7.322,0,1,1,94.7,76,7.33,7.33,0,0,1,87.377,83.321Zm0-14.143A6.822,6.822,0,1,0,94.2,76a6.829,6.829,0,0,0-6.822-6.822Z" />
    <path class="a"
      d="M301.651,83.732c-2.214,0-3.932-3.4-3.932-7.733s1.718-7.733,3.932-7.733,3.932,3.4,3.932,7.733S303.832,83.732,301.651,83.732Zm0-14.8c-1.784,0-3.271,3.238-3.271,7.072s1.487,7.072,3.271,7.072,3.271-3.238,3.271-7.072S303.4,68.928,301.651,68.928Z"
      transform="translate(-214.274)" />
    <path class="a"
      d="M301.651,83.982c-1.168,0-2.241-.845-3.019-2.38a14.077,14.077,0,0,1,0-11.206c.779-1.535,1.851-2.38,3.019-2.38s2.241.845,3.019,2.38a12.689,12.689,0,0,1,1.163,5.6C305.834,80.476,304,83.982,301.651,83.982Zm0-15.465c-.97,0-1.884.748-2.574,2.106a13.589,13.589,0,0,0,0,10.753c.689,1.358,1.6,2.106,2.574,2.106,2.03,0,3.682-3.357,3.682-7.483a12.186,12.186,0,0,0-1.109-5.377C303.536,69.265,302.622,68.517,301.651,68.517Zm0,14.8c-1.942,0-3.521-3.285-3.521-7.322s1.58-7.322,3.521-7.322c.952,0,1.847.8,2.519,2.243a12.347,12.347,0,0,1,1,5.079C305.173,80.037,303.593,83.321,301.651,83.321Zm0-14.143c-.748,0-1.505.712-2.078,1.953a13.032,13.032,0,0,0,0,9.737c.573,1.241,1.33,1.953,2.078,1.953s1.505-.712,2.078-1.953a12.953,12.953,0,0,0-.012-9.737C303.14,69.89,302.387,69.178,301.651,69.178Z"
      transform="translate(-214.274)" />
    <path class="a"
      d="M179.777,228.973a12.407,12.407,0,0,1-5.915-1.52.34.34,0,0,1,.33-.595,11.688,11.688,0,0,0,5.585,1.421,11.478,11.478,0,0,0,5.618-1.454.34.34,0,1,1,.33.595A12.106,12.106,0,0,1,179.777,228.973Zm-5.684,7.9a.347.347,0,0,1-.3-.165.334.334,0,0,1,.132-.463,12.237,12.237,0,0,1,11.632-.033.34.34,0,1,1-.33.595,11.369,11.369,0,0,0-5.486-1.388,11.883,11.883,0,0,0-5.519,1.388C174.192,236.871,174.159,236.871,174.093,236.871Z"
      transform="translate(-92.4 -155.75)" />
    <path class="a"
      d="M185.559,226.529a.6.6,0,0,1,.512.3.584.584,0,0,1-.218.806l-.006,0a12.385,12.385,0,0,1-6.071,1.585,12.646,12.646,0,0,1-6.035-1.551l-.009-.005a.584.584,0,0,1-.218-.806.6.6,0,0,1,.512-.3.571.571,0,0,1,.289.079,11.38,11.38,0,0,0,5.461,1.388,11.152,11.152,0,0,0,5.493-1.421A.57.57,0,0,1,185.559,226.529Zm.039.676c.032-.02.076-.066.044-.118s-.076-.072-.12-.046l-.007,0a11.882,11.882,0,0,1-11.444.034l-.008,0c-.043-.026-.09,0-.12.046s.011.1.043.118a12.145,12.145,0,0,0,5.79,1.486A11.885,11.885,0,0,0,185.6,227.2Zm-5.855,7.3a12.58,12.58,0,0,1,5.934,1.484l.01.006a.584.584,0,0,1,.218.806.6.6,0,0,1-.512.3.57.57,0,0,1-.289-.079,11.172,11.172,0,0,0-5.362-1.355A11.594,11.594,0,0,0,174.4,237a.366.366,0,0,1-.3.124.594.594,0,0,1-.505-.277l-.006-.01a.563.563,0,0,1-.058-.457.615.615,0,0,1,.276-.349l.01-.006A12.6,12.6,0,0,1,179.744,234.506Zm5.691,1.921a11.986,11.986,0,0,0-11.382.033.117.117,0,0,0-.05.062.064.064,0,0,0,.005.051.113.113,0,0,0,.048.042l.053-.03a12.1,12.1,0,0,1,5.636-1.417,11.672,11.672,0,0,1,5.606,1.419l.008,0c.043.026.09,0,.12-.046A.088.088,0,0,0,185.435,236.427Z"
      transform="translate(-92.4 -155.75)" />
    <path class="a"
      d="M94.779,497.491h-14.8a.33.33,0,1,1,0-.661h14.8a.312.312,0,0,1,.33.33A.331.331,0,0,1,94.779,497.491Z"
      transform="translate(0 -421.095)" />
    <path class="a"
      d="M94.779,497.741h-14.8a.58.58,0,1,1,0-1.161h14.8a.561.561,0,0,1,.58.58A.581.581,0,0,1,94.779,497.741Zm-14.8-.661c-.06,0-.08.02-.08.08s.02.08.08.08h14.8a.081.081,0,0,0,.08-.08c0-.06-.02-.08-.08-.08Z"
      transform="translate(0 -421.095)" />
  </g>
</svg>