<svg xmlns="http://www.w3.org/2000/svg" width="1em" height="1em" viewBox="0 0 25.907 31.533">
  <defs>
    <style>
      .a {
        stroke: rgba(0, 0, 0, 0);
        stroke-miterlimit: 10;
      }
    </style>
  </defs>
  <path class="a"
    d="M3.193,26.653C.595,22.86-1.42,15.962,1.285,11.274A7.433,7.433,0,0,1,7.547,7.447C9.53,7.416,11.384,8.795,12.6,8.795c1.2,0,3.481-1.66,5.831-1.412a7.152,7.152,0,0,1,5.594,3.029,6.952,6.952,0,0,0-3.3,5.82,6.723,6.723,0,0,0,4.1,6.165A15.232,15.232,0,0,1,22.7,26.729c-1.261,1.875-2.565,3.707-4.656,3.74-2.027.043-2.706-1.2-5.034-1.2S9.94,30.436,8,30.512l-.1,0C5.953,30.514,4.474,28.475,3.193,26.653ZM12.364,7.038a6.558,6.558,0,0,1,1.606-4.71A6.934,6.934,0,0,1,18.465,0,6.837,6.837,0,0,1,16.9,4.893,5.875,5.875,0,0,1,12.666,7.05Q12.515,7.05,12.364,7.038Z"
    transform="translate(0.51 0.52)" />
</svg>