<svg xmlns="http://www.w3.org/2000/svg" width="1em" height="1em" viewBox="0 0 31 31">
  <path
    d="M655.5,3318a15.5,15.5,0,1,1,10.961-4.54A15.4,15.4,0,0,1,655.5,3318Zm-2.579-15.492a3.5,3.5,0,0,0-2.705,1.228,4.185,4.185,0,0,0-.771,1.381,5.35,5.35,0,0,0-.274,1.744,5.13,5.13,0,0,0,.263,1.676,4.054,4.054,0,0,0,.748,1.334,3.413,3.413,0,0,0,2.648,1.206,3.607,3.607,0,0,0,1.537-.325,3.467,3.467,0,0,0,1.187-.912,4.171,4.171,0,0,0,.753-1.382,5.563,5.563,0,0,0,.262-1.748,5.3,5.3,0,0,0-.257-1.678,4.013,4.013,0,0,0-.73-1.335,3.3,3.3,0,0,0-1.159-.877A3.581,3.581,0,0,0,652.92,3302.509Zm4.223,6.7h0l-.4,1.209.151.107a3.519,3.519,0,0,0,2.057.545,3.79,3.79,0,0,0,1.166-.169,2.639,2.639,0,0,0,.913-.493,2.22,2.22,0,0,0,.594-.789,2.453,2.453,0,0,0,.208-1.013,2.624,2.624,0,0,0-.116-.8,1.989,1.989,0,0,0-.391-.7,3.009,3.009,0,0,0-.663-.563,5.614,5.614,0,0,0-.933-.468,6.508,6.508,0,0,1-.719-.339,1.742,1.742,0,0,1-.41-.307.919.919,0,0,1-.2-.308,1.162,1.162,0,0,1-.06-.391.842.842,0,0,1,.325-.7,1.446,1.446,0,0,1,.932-.281,2.372,2.372,0,0,1,1.281.321l.261.165.447-1.205-.183-.105a3.5,3.5,0,0,0-1.771-.405,3.274,3.274,0,0,0-1.049.164,2.564,2.564,0,0,0-.853.475,2.18,2.18,0,0,0-.771,1.686c0,1.076.729,1.9,2.166,2.436a2.819,2.819,0,0,1,1.037.6,1.09,1.09,0,0,1,.275.786,1.036,1.036,0,0,1-.355.831,1.607,1.607,0,0,1-1.077.321,2.956,2.956,0,0,1-1.595-.448l-.269-.169Zm.026-14.177c.854,0,1.287.464,1.287,1.379v.128h-.01a4.677,4.677,0,0,0-2.447.526,1.719,1.719,0,0,0-.847,1.548,1.572,1.572,0,0,0,.128.637,1.608,1.608,0,0,0,.347.5,1.519,1.519,0,0,0,.522.33,1.847,1.847,0,0,0,.661.115,1.913,1.913,0,0,0,1.693-.846h.035l.081.719h.8a4.9,4.9,0,0,1-.064-.6c-.012-.225-.018-.473-.018-.736v-2.146c0-1.485-.686-2.238-2.04-2.238a3.192,3.192,0,0,0-1.75.475l.209.6A2.524,2.524,0,0,1,657.169,3295.03Zm6.169-.674a3.134,3.134,0,0,0-1.189.221,2.7,2.7,0,0,0-.922.615,2.832,2.832,0,0,0-.6.939,3.283,3.283,0,0,0-.214,1.206,3.408,3.408,0,0,0,.191,1.171,2.579,2.579,0,0,0,.551.9,2.462,2.462,0,0,0,.858.58,2.953,2.953,0,0,0,1.113.2,3.506,3.506,0,0,0,1.577-.325l-.174-.672a3,3,0,0,1-1.24.278,1.988,1.988,0,0,1-.8-.157,1.8,1.8,0,0,1-.62-.44,2,2,0,0,1-.406-.69,2.631,2.631,0,0,1-.146-.893,2.716,2.716,0,0,1,.14-.881,2.119,2.119,0,0,1,.394-.7,1.805,1.805,0,0,1,.626-.464,2.038,2.038,0,0,1,.846-.167,2.441,2.441,0,0,1,1.183.278l.22-.7A2.873,2.873,0,0,0,663.338,3294.355Zm-11.362.732c.831,0,1.252.6,1.252,1.774v3.211h.869v-3.327a2.805,2.805,0,0,0-.493-1.757,1.591,1.591,0,0,0-1.316-.632,2.045,2.045,0,0,0-1.073.284,2.153,2.153,0,0,0-.77.841h-.023a1.638,1.638,0,0,0-.585-.823,1.6,1.6,0,0,0-.968-.3,1.9,1.9,0,0,0-1.739,1.032h-.081v-.916h-.777c.016.281.027.53.035.76.008.267.012.5.012.7v4.139h.868v-3.408a1.671,1.671,0,0,1,.1-.574,1.787,1.787,0,0,1,.29-.51,1.432,1.432,0,0,1,.441-.359,1.184,1.184,0,0,1,.556-.133,1.02,1.02,0,0,1,.893.435,1.955,1.955,0,0,1,.3,1.13v3.42h.869v-3.5a1.6,1.6,0,0,1,.1-.557,1.563,1.563,0,0,1,.279-.474,1.367,1.367,0,0,1,.423-.331A1.18,1.18,0,0,1,651.975,3295.087Zm.875,14.771a1.842,1.842,0,0,1-.9-.224,2.238,2.238,0,0,1-.715-.626,3.172,3.172,0,0,1-.477-.962,4.076,4.076,0,0,1-.174-1.207,4.469,4.469,0,0,1,.175-1.279,3.176,3.176,0,0,1,.478-.989,2.122,2.122,0,0,1,.716-.624,1.947,1.947,0,0,1,.921-.22,1.849,1.849,0,0,1,.895.219,2.183,2.183,0,0,1,.707.625,3.224,3.224,0,0,1,.478.968,4.1,4.1,0,0,1,.175,1.219,4.452,4.452,0,0,1-.169,1.256,3.2,3.2,0,0,1-.472.985,2.167,2.167,0,0,1-.717.635A1.9,1.9,0,0,1,652.85,3309.859Zm4.169-10.331a.994.994,0,0,1-.7-.256,1.007,1.007,0,0,1-.278-.777c0-.877.757-1.321,2.249-1.321h.174v1.044a1.168,1.168,0,0,1-.127.545,1.35,1.35,0,0,1-.33.411,1.541,1.541,0,0,1-.464.261A1.586,1.586,0,0,1,657.019,3299.528Z"
    transform="translate(-640 -3287)" />
</svg>