<svg xmlns="http://www.w3.org/2000/svg" width="1em" height="1em" viewBox="0 0 30 30">
  <path class="a"
    d="M15,30A15,15,0,1,1,30,15,15,15,0,0,1,15,30Zm7.325-17.944A3.6,3.6,0,0,0,23.75,10.2a3.03,3.03,0,0,1-1.8.55A2.486,2.486,0,0,0,23.4,8.9a6.89,6.89,0,0,1-2.155.94A3.407,3.407,0,0,0,15.455,13a9.4,9.4,0,0,1-6.884-3.7,3.746,3.746,0,0,0,1.084,4.644,2.7,2.7,0,0,1-1.45-.362,3.632,3.632,0,0,0,2.548,3.53H9.3a3.174,3.174,0,0,0,3.07,2.214A6.362,6.362,0,0,1,7.5,20.806a7.377,7.377,0,0,0,5.434,1.665c5.591-.188,9.392-4.47,9.392-10.415Z" />
</svg>