<svg xmlns="http://www.w3.org/2000/svg" xmlns:xlink="http://www.w3.org/1999/xlink" width="1em" height="1em"
  viewBox="0 0 18.719 18.152">
  <defs>

    <clipPath id="a">
      <rect class="a" width="18.719" height="18.152" transform="translate(0 0)" />
    </clipPath>
  </defs>
  <g class="b">
    <path class="c"
      d="M-741.331,3246.778a.842.842,0,0,1-.834-.835,5.449,5.449,0,0,0-5.431-5.433h-1.3a5.448,5.448,0,0,0-5.431,5.431.841.841,0,0,1-.834.837h0a.838.838,0,0,1-.838-.837,7.118,7.118,0,0,1,4.68-6.679,4.743,4.743,0,0,1-1.547-3.506,4.76,4.76,0,0,1,4.755-4.755,4.76,4.76,0,0,1,4.756,4.755,4.754,4.754,0,0,1-1.631,3.576,7.117,7.117,0,0,1,4.5,6.61.839.839,0,0,1-.838.838Zm-9.859-11.023a3.083,3.083,0,0,0,3.079,3.08,3.083,3.083,0,0,0,3.08-3.08,3.094,3.094,0,0,0-3.08-3.08A3.083,3.083,0,0,0-751.19,3235.755Z"
      transform="translate(757.558 -3229.405)" />
  </g>
</svg>